
        <svg xmlns="http://www.w3.org/2000/svg" xmlns:xlink="http://www.w3.org/1999/xlink" version="1.1" width="2339.7970536518233" 
        height="3389.966175608637" viewBox="0 0 2339.7970536518233 3389.966175608637">
			
			<g transform="scale(19.49830878043186) translate(10, 10)">
				<defs id="SvgjsDefs2115"></defs><g id="SvgjsG2116" featureKey="symbolFeature-0" transform="matrix(0.49987509987243023,0,0,0.49987509987243023,25.001249477993742,-5.238690817838408)" fill="#ffffff"><defs xmlns="http://www.w3.org/2000/svg"></defs><title xmlns="http://www.w3.org/2000/svg"></title><path xmlns="http://www.w3.org/2000/svg" d="M85.32,62.07A68.22,68.22,0,0,1,79,66.23c-.54.31-1.08.62-1.63.92l-.2.11-.11,0,0,0h0l-.07,0-.1.05c-.14.08-.32.17-.52.26a14,14,0,0,1-1.32.52c-.48.17-1,.31-1.48.45a30.59,30.59,0,0,1-3.14.65c-1.08.18-2.19.31-3.33.41-2.27.2-4.65.28-7.16.32s-5.15.06-7.92.14c-1.38,0-2.8.11-4.25.21l-2.19.18c-.74.07-1.48.16-2.25.27a61,61,0,0,0-9,2,90.87,90.87,0,0,0-8.63,3c-1.39.57-2.76,1.16-4.12,1.77a39.89,39.89,0,0,0,9.58,7.16c2-1,4-2,6-2.83a48.67,48.67,0,0,1,7.14-2.39c.57-.14,1.17-.28,1.77-.4s1.2-.23,1.8-.33c1.2-.21,2.4-.38,3.59-.53,2.38-.31,4.73-.53,7-.79s4.53-.52,6.73-.9c1.09-.2,2.18-.42,3.26-.69a29.78,29.78,0,0,0,3.27-1c.56-.2,1.12-.43,1.7-.69l.89-.44c.3-.15.62-.33,1-.53a11.4,11.4,0,0,0,1.08-.7c.1-.06.2-.15.31-.22L77,72.1l.09-.07.07-.06.1-.09.19-.18L79,70.22q3.14-3,6.22-6.08c1-1.07,2.09-2.14,3.13-3.23.16-.52.3-1,.43-1.57Q87.07,60.78,85.32,62.07Z" style="fill-rule: evenodd;"></path><path xmlns="http://www.w3.org/2000/svg" d="M80.24,49.11l-1.68-.06-.42,0-.21,0h-.16c-.19,0-.42,0-.65,0-1,0-2-.13-3.14-.26-2.21-.26-4.54-.66-6.94-1.12s-4.87-1-7.43-1.54-5.19-1.11-7.9-1.64c-1.36-.26-2.73-.52-4.13-.76l-2.12-.35-1.06-.17L43.3,43c-2.94-.4-5.92-.63-8.95-.74s-6.09-.09-9.19,0-6.25.33-9.43.61c-1.75.15-3.51.33-5.27.51a40.83,40.83,0,0,0-.46,6.1,41.64,41.64,0,0,0,.31,5c2.25-.38,4.44-.75,6.61-1.08,3-.48,6-.9,8.93-1.24s5.77-.59,8.56-.72,5.52-.19,8.15-.08l1,0,1,0,2,.12,3.92.31c2.59.23,5.13.49,7.62.73s4.93.48,7.33.65,4.74.28,7.12.25c1.2,0,2.39-.06,3.72-.21.34,0,.68-.08,1.06-.15l.14,0h.07l.06,0,.21-.06.43-.11,1.7-.46c2.26-.6,4.46-1.21,6.61-1.8l3.47-1v-.24c0-.24,0-.48,0-.72-1.06.11-2.15.19-3.24.24C84.63,49.15,82.47,49.17,80.24,49.11Z" style="fill-rule: evenodd;"></path><path xmlns="http://www.w3.org/2000/svg" d="M79.08,74.93c-.5.46-1,.91-1.52,1.35l-.19.17-.08.07,0,0-.07.06-.09.08-.46.37-.58.4-.63.4c-.44.26-.9.51-1.37.75-.94.47-1.94.89-3,1.28s-2.08.73-3.17,1c-2.17.64-4.46,1.18-6.86,1.71s-4.92,1-7.51,1.58c-1.29.28-2.61.56-3.93.87-.67.15-1.34.3-2,.47l-1,.24-1,.27c-2.11.56-4.21,1.22-6.28,2a40.05,40.05,0,0,0,45.6-19Q82,72.23,79.08,74.93Z" style="fill-rule: evenodd;"></path><path xmlns="http://www.w3.org/2000/svg" d="M80.29,26.58l.77.66.78.61,1.56,1.24c.63.5,1.25,1,1.87,1.55A40.08,40.08,0,0,0,58.79,10.48,218.06,218.06,0,0,1,77.17,24Z" style="fill-rule: evenodd;"></path><path xmlns="http://www.w3.org/2000/svg" d="M82.65,33.53l-1.57-1.14c-.26-.18-.52-.38-.79-.56l-.8-.51c-1.07-.68-2.15-1.36-3.24-2A266.39,266.39,0,0,0,48.52,14.44q-4.16-1.92-8.41-3.69A39.84,39.84,0,0,0,27,16.82Q37.06,19.4,46.5,22.47a301,301,0,0,1,29,11.08c1.12.5,2.23,1,3.33,1.51l.83.38.82.32c.56.21,1.1.43,1.65.66q3.27,1.32,6.39,2.84l.19.1c-.16-.63-.34-1.24-.53-1.85Q85.44,35.56,82.65,33.53Z" style="fill-rule: evenodd;"></path><path xmlns="http://www.w3.org/2000/svg" d="M87.76,43.12c-2.08-.66-4.21-1.39-6.38-2.17l-1.64-.59-.82-.3-.81-.24-3.37-1c-4.56-1.37-9.33-2.81-14.28-4.27-2.48-.72-5-1.46-7.58-2.19L49,31.26l-2-.54-1-.27-1-.26c-1.37-.32-2.72-.63-4.09-.93l-4.13-.89q-4.15-.87-8.45-1.69c-3.21-.61-6.47-1.21-9.78-1.77a39.76,39.76,0,0,0-5.79,10.22q7.17.66,14,1.38c3,.31,5.86.63,8.72,1l4.24.5c1.39.16,2.78.33,4.12.51l1,.13,1,.15,2,.32,4,.65L59.44,41c5.07.83,9.93,1.62,14.6,2.32l3.48.5.88.12c.28,0,.57,0,.85.05l1.69.1q3.36.21,6.56.52l2.23.23-.15-1.15C89,43.51,88.37,43.32,87.76,43.12Z" style="fill-rule: evenodd;"></path><path xmlns="http://www.w3.org/2000/svg" d="M85.94,55.23a63.91,63.91,0,0,1-6.49,2.12l-1.68.43-.42.1-.11,0,0,0-.06,0h-.06l-.58.15c-.44.09-.92.17-1.43.24s-1,.12-1.56.16c-1.08.09-2.19.12-3.32.13s-2.31,0-3.48-.08c-2.38-.11-4.85-.31-7.41-.54s-5.23-.5-8-.72c-1.39-.12-2.79-.22-4.22-.31-.71,0-1.43-.09-2.16-.12l-1.09,0-1.13,0a75.12,75.12,0,0,0-9.21.4c-3.09.32-6.18.82-9.28,1.44S18,60,15,60.82l-3.08.85a40.21,40.21,0,0,0,4.88,10.11l1.76-.65c2.75-1,5.48-1.9,8.19-2.7s5.42-1.47,8.08-2a66.5,66.5,0,0,1,7.81-1.08l.95-.06,1,0c.65,0,1.3-.06,1.95-.09,1.29,0,2.57-.08,3.84-.1,2.54,0,5,0,7.45-.08s4.79-.08,7.12-.22c1.17-.07,2.32-.16,3.46-.29s2.3-.3,3.47-.52c.59-.12,1.18-.25,1.79-.4s1.23-.35,1.92-.59c.34-.12.7-.26,1.09-.43l.15-.07.16-.07.15-.07.11-.06.42-.24,1.66-1c2.21-1.3,4.38-2.61,6.5-3.95q2-1.24,3.91-2.51l.12-1C88.53,54.17,87.25,54.72,85.94,55.23Z" style="fill-rule: evenodd;"></path></g><g id="SvgjsG2117" featureKey="nameFeature-0" transform="matrix(2.2726754523499255,0,0,2.2726754523499255,0.0000010836961042165401,29.09159356124994)" fill="#ffffff"><path d="M9.92 17.88 c2.72 -2.44 5.44 -4 9.16 -4 c1.72 0.12 2.84 1.2 2.84 2.96 c0 0.28 -0.04 1.16 -0.48 1.16 c-0.72 0 -0.6 -1.52 -0.96 -1.92 c-0.48 -0.52 -1.24 -0.64 -1.92 -0.64 c-1.72 0 -3.28 1.72 -4.24 2.88 c-0.16 0.16 -0.76 0.92 -0.88 1.08 c-0.24 0.32 -1.04 1.44 -1.12 1.56 l-1.92 3 l-1.72 3.12 l-1.16 2.48 l-1 2.48 c-0.04 0.16 -0.44 1.36 -0.56 1.76 c-0.56 1.8 -0.92 3.72 -0.92 5.64 c0 1.32 0.24 3.2 1.92 3.2 s3.32 -1.56 4.48 -2.72 l1.44 -1.48 l1.84 -2.16 l4.84 -6.36 c0.08 -0.12 0.36 -0.12 0.48 -0.12 c0.32 0 0.44 0.2 0.44 0.48 c0 0.16 0 0.24 -0.08 0.36 l-4.08 5.48 l-2.48 2.92 l-1.64 1.72 c-0.08 0.08 -0.64 0.56 -0.76 0.68 c-1.16 1.04 -2.64 2.24 -4.28 2.4 c-4.24 0 -7.16 -1.76 -7.16 -6.36 c0 -1.4 0.24 -2.8 0.72 -4.12 l0.8 -2.32 l1.12 -2.64 l1.12 -2.28 l1.36 -2.32 l1.4 -2.08 c0.92 -1.4 2.16 -2.68 3.4 -3.84 z M38.241 15.48 c1.56 0 3.12 -0.28 4.24 -1.44 c0.32 -0.36 0.48 -0.88 1 -0.88 c0.32 0 0.52 0.28 0.52 0.6 l0 0.08 c-2 3.32 -5.32 5.04 -9.16 5.04 c-0.68 0 -1.36 -0.04 -2.04 -0.12 l-0.16 0.32 l-2.2 6 c0.16 0.08 0.36 0.08 0.52 0.08 c1.2 0 2.32 -0.08 3.16 -1.04 c0.16 -0.08 0.32 -0.08 0.48 -0.08 c0.32 0 0.48 0.2 0.48 0.48 c0 0.52 -0.68 1 -1.04 1.28 c-0.12 0.08 -0.44 0.32 -0.48 0.36 c-0.12 0.08 -0.56 0.4 -0.64 0.44 s-0.44 0.24 -0.52 0.28 c-0.08 0.08 -0.6 0.32 -0.72 0.4 c-0.04 0 -0.4 0.16 -0.48 0.2 c-0.6 0.2 -1.16 0.36 -1.8 0.36 l-4.16 11.36 c-0.92 2.28 -3.2 3.96 -5.68 3.96 c-0.12 0 -0.24 -0.04 -0.32 -0.04 c-0.2 -0.04 -0.64 -0.2 -0.64 -0.2 l-0.04 0 c0.04 0 0.04 -0.04 0.08 -0.08 s0.56 -0.44 0.64 -0.52 c0.64 -0.6 1.2 -1.4 1.56 -2.2 l0.64 -1.56 l7.32 -20.24 l0 -0.04 c-0.48 -0.04 -1 -0.08 -1.48 -0.08 c-3.32 0 -4.8 1.4 -5.88 4.48 c-0.16 0.08 -0.36 0.16 -0.56 0.16 c-0.24 0 -0.56 -0.2 -0.56 -0.48 c0 0 0.04 -0.12 0.04 -0.16 c0.12 -0.32 0.48 -1.2 0.48 -1.24 c0.04 -0.08 0.24 -0.52 0.28 -0.64 c1.8 -3.72 4.6 -5.64 8.76 -5.64 c0.64 0 1.28 0 1.92 0.08 l4.96 0.64 c0.12 0.04 0.8 0.08 0.96 0.08 l0.52 0 z"></path></g><g id="SvgjsG2118" featureKey="sloganFeature-0" transform="matrix(0.3427063676535829,0,0,0.3427063676535829,9.28045376590495,146.941756853843)" fill="#ffffff"><path d="M9.6875 7.939 l-5.6055 0 l0 4.2871 l4.873 0 l0 1.748 l-4.873 0 l0 6.0254 l-1.9824 0 l0 -13.809 l7.5879 0 l0 1.748 z M21.731226171875 20.18555 c-3.916 0 -6.9043 -2.6953 -6.9043 -7.0996 c0 -4.3945 2.9883 -7.0801 6.9043 -7.0801 c3.8965 0 6.8945 2.6855 6.8945 7.0801 c0 4.4043 -2.998 7.0996 -6.8945 7.0996 z M21.731226171875 18.3594 c2.7637 0 4.9512 -1.9141 4.9512 -5.2734 c0 -3.3301 -2.1875 -5.2441 -4.9512 -5.2441 c-2.7734 0 -4.9707 1.9141 -4.9707 5.2441 c0 3.3594 2.1973 5.2734 4.9707 5.2734 z M41.05031796875 20.18555 c-3.916 0 -6.9043 -2.6953 -6.9043 -7.0996 c0 -4.3945 2.9883 -7.0801 6.9043 -7.0801 c3.8965 0 6.8945 2.6855 6.8945 7.0801 c0 4.4043 -2.998 7.0996 -6.8945 7.0996 z M41.05031796875 18.3594 c2.7637 0 4.9512 -1.9141 4.9512 -5.2734 c0 -3.3301 -2.1875 -5.2441 -4.9512 -5.2441 c-2.7734 0 -4.9707 1.9141 -4.9707 5.2441 c0 3.3594 2.1973 5.2734 4.9707 5.2734 z M54.422109765625 20 l0 -13.809 l4.5508 0 c4.248 0 6.4063 2.8516 6.4063 6.8945 c0 4.0723 -2.1582 6.9141 -6.4063 6.9141 l-4.5508 0 z M56.365509765625 18.2422 l2.5293 0 c3.0176 0 4.4531 -2.002 4.4531 -5.1563 c0 -3.1348 -1.4355 -5.1465 -4.4531 -5.1465 l-2.5293 0 l0 10.303 z M86.282983984375 20.18555 c-3.916 0 -6.9043 -2.6855 -6.9043 -7.0996 c0 -4.3945 2.9883 -7.0801 6.9043 -7.0801 c2.793 0 5.1074 1.3867 6.1719 3.7598 l-1.7969 0.71289 c-0.80078 -1.6895 -2.4316 -2.6367 -4.375 -2.6367 c-2.7734 0 -4.9707 1.9141 -4.9707 5.2441 c0 3.3496 2.1973 5.2637 4.9707 5.2637 c1.9434 0 3.5742 -0.94727 4.375 -2.6367 l1.7969 0.72266 c-1.0645 2.3633 -3.3789 3.75 -6.1719 3.75 z M104.53762265625 20.18555 c-3.916 0 -6.9043 -2.6953 -6.9043 -7.0996 c0 -4.3945 2.9883 -7.0801 6.9043 -7.0801 c3.8965 0 6.8945 2.6855 6.8945 7.0801 c0 4.4043 -2.998 7.0996 -6.8945 7.0996 z M104.53762265625 18.3594 c2.7637 0 4.9512 -1.9141 4.9512 -5.2734 c0 -3.3301 -2.1875 -5.2441 -4.9512 -5.2441 c-2.7734 0 -4.9707 1.9141 -4.9707 5.2441 c0 3.3594 2.1973 5.2734 4.9707 5.2734 z M127.215814453125 6.191000000000001 l1.9336 0 l0 13.809 l-2.0996 0 l-7.2168 -10.957 l0 10.957 l-1.9238 0 l0 -13.809 l2.0801 0 l7.2266 10.908 l0 -10.908 z M140.910175 20.18555 c-2.8809 0 -4.9902 -1.377 -5.459 -3.7207 l1.9824 -0.46875 c0.3125 1.6113 1.709 2.5391 3.5449 2.5391 c1.4746 0 2.8906 -0.60547 2.8613 -2.2656 c-0.019531 -1.6406 -1.7969 -2.0898 -3.6816 -2.6074 c-2.1387 -0.58594 -4.2773 -1.2598 -4.2773 -3.7988 c0 -2.5684 2.1191 -3.8574 4.6289 -3.8574 c2.4316 0 4.6191 1.0254 5.1367 3.3984 l-1.8848 0.47852 c-0.3418 -1.5332 -1.6211 -2.2168 -3.1641 -2.2168 c-1.3867 0 -2.7637 0.60547 -2.7637 2.1777 c0 1.4258 1.543 1.8457 3.291 2.3145 c2.1973 0.5957 4.7168 1.2793 4.7168 4.0527 c0 2.793 -2.3438 3.9746 -4.9316 3.9746 z M157.065154296875 20.18555 c-2.8613 0 -5.0781 -1.6895 -5.0781 -4.8047 l0 -9.1895 l1.9434 0 l0 8.916 c0 2.2754 1.3672 3.3203 3.1348 3.3203 s3.1641 -1.0547 3.1641 -3.3203 l0 -8.916 l1.9434 0 l0 9.1895 c0 3.1152 -2.2266 4.8047 -5.1074 4.8047 z M171.26712109375 18.2422 l4.7168 0 l0 1.7578 l-6.6602 0 l0 -13.809 l1.9434 0 l0 12.051 z M189.209203515625 6.191000000000001 l0 1.748 l-3.4961 0 l0 12.061 l-1.9238 0 l0 -12.061 l-3.5059 0 l0 -1.748 l8.9258 0 z M195.0712796875 20 l0 -13.809 l1.9434 0 l0 13.809 l-1.9434 0 z M213.765130859375 6.191000000000001 l1.9336 0 l0 13.809 l-2.0996 0 l-7.2168 -10.957 l0 10.957 l-1.9238 0 l0 -13.809 l2.0801 0 l7.2266 10.908 l0 -10.908 z M229.01219140625 20.18555 c-3.8672 0 -6.8359 -2.6465 -6.8359 -7.0508 c0 -4.4434 2.9883 -7.1289 6.9043 -7.1289 c2.5391 0 4.7168 1.1133 5.9082 3.2227 l-1.7188 0.91797 c-0.86914 -1.6211 -2.4219 -2.373 -4.1895 -2.373 c-2.793 0 -4.9512 1.8945 -4.9512 5.3223 c0 3.3789 2.1094 5.3418 5.0195 5.3418 c2.3438 0 4.1797 -1.3184 4.502 -3.9355 l-4.5117 0 l0 -1.6211 l6.3965 0 l0 7.1191 l-1.582 0 l0 -2.4805 c-0.9082 1.6895 -2.6172 2.666 -4.9414 2.666 z"></path></g>
			</g>
		</svg>
	