<?xml version="1.0" encoding="UTF-8" standalone="no"?>
<!DOCTYPE svg PUBLIC "-//W3C//DTD SVG 1.1//EN" "http://www.w3.org/Graphics/SVG/1.1/DTD/svg11.dtd">
<svg width="100%" height="100%" viewBox="0 0 799 804" version="1.1" xmlns="http://www.w3.org/2000/svg" xmlns:xlink="http://www.w3.org/1999/xlink" xml:space="preserve" xmlns:serif="http://www.serif.com/" style="fill-rule:evenodd;clip-rule:evenodd;stroke-linejoin:round;stroke-miterlimit:2;">
    <g transform="matrix(19.4983,0,0,19.4983,-572.017,13.9831)">
        <g id="SvgjsG2116" transform="matrix(0.499875,0,0,0.499875,25.0012,-5.23869)">
            <path d="M85.32,62.07C83.292,63.573 81.182,64.961 79,66.23C78.46,66.54 77.92,66.85 77.37,67.15L77.17,67.26L76.99,67.26L76.89,67.31C76.75,67.39 76.57,67.48 76.37,67.57C75.939,67.766 75.499,67.939 75.05,68.09C74.57,68.26 74.05,68.4 73.57,68.54C72.535,68.811 71.487,69.028 70.43,69.19C69.35,69.37 68.24,69.5 67.1,69.6C64.83,69.8 62.45,69.88 59.94,69.92C57.43,69.96 54.79,69.98 52.02,70.06C50.64,70.06 49.22,70.17 47.77,70.27L45.58,70.45C44.84,70.52 44.1,70.61 43.33,70.72C40.284,71.159 37.275,71.827 34.33,72.72C31.405,73.575 28.525,74.576 25.7,75.72C24.31,76.29 22.94,76.88 21.58,77.49C24.395,80.345 27.625,82.758 31.16,84.65C33.16,83.65 35.16,82.65 37.16,81.82C39.475,80.84 41.862,80.041 44.3,79.43C44.87,79.29 45.47,79.15 46.07,79.03C46.67,78.91 47.27,78.8 47.87,78.7C49.07,78.49 50.27,78.32 51.46,78.17C53.84,77.86 56.19,77.64 58.46,77.38C60.73,77.12 62.99,76.86 65.19,76.48C66.28,76.28 67.37,76.06 68.45,75.79C69.558,75.52 70.65,75.186 71.72,74.79C72.28,74.59 72.84,74.36 73.42,74.1L74.31,73.66C74.61,73.51 74.93,73.33 75.31,73.13C75.683,72.917 76.043,72.683 76.39,72.43C76.49,72.37 76.59,72.28 76.7,72.21L77,72.1L77.09,72.03L77.16,71.97L77.26,71.88L77.45,71.7L79,70.22C81.093,68.22 83.167,66.193 85.22,64.14C86.22,63.07 87.31,62 88.35,60.91C88.51,60.39 88.65,59.91 88.78,59.34C87.64,60.3 86.487,61.21 85.32,62.07Z" style="fill:#5D5DFF;"/>
            <path d="M80.24,49.11L78.56,49.05L77.12,49.05C76.12,49.05 75.12,48.92 73.98,48.79C71.77,48.53 69.44,48.13 67.04,47.67C64.64,47.21 62.17,46.67 59.61,46.13C57.05,45.59 54.42,45.02 51.71,44.49C50.35,44.23 48.98,43.97 47.58,43.73L45.46,43.38L44.4,43.21L43.3,43C40.36,42.6 37.38,42.37 34.35,42.26C31.32,42.15 28.26,42.17 25.16,42.26C22.06,42.35 18.91,42.59 15.73,42.87C13.98,43.02 12.22,43.2 10.46,43.38C10.154,45.399 10.001,47.438 10,49.48C10.003,51.151 10.106,52.821 10.31,54.48C12.56,54.1 14.75,53.73 16.92,53.4C19.92,52.92 22.92,52.5 25.85,52.16C28.78,51.82 31.62,51.57 34.41,51.44C37.2,51.31 39.93,51.25 42.56,51.36L44.56,51.36L46.56,51.48L50.48,51.79C53.07,52.02 55.61,52.28 58.1,52.52C60.59,52.76 63.03,53 65.43,53.17C67.83,53.34 70.17,53.45 72.55,53.42C73.75,53.42 74.94,53.36 76.27,53.21C76.61,53.21 76.95,53.13 77.33,53.06L77.6,53.06L77.81,53L78.24,52.89L79.94,52.43C82.2,51.83 84.4,51.22 86.55,50.63L90.02,49.63L90.02,48.67C88.96,48.78 87.87,48.86 86.78,48.91C84.63,49.15 82.47,49.17 80.24,49.11Z" style="fill:#5D5DFF;"/>
            <path d="M79.08,74.93C78.58,75.39 78.08,75.84 77.56,76.28L77.37,76.45L77.29,76.52L77.22,76.58L77.13,76.66L76.67,77.03L76.09,77.43L75.46,77.83C75.02,78.09 74.56,78.34 74.09,78.58C73.15,79.05 72.15,79.47 71.09,79.86C70.03,80.25 69.01,80.59 67.92,80.86C65.75,81.5 63.46,82.04 61.06,82.57C58.66,83.1 56.14,83.57 53.55,84.15C52.26,84.43 50.94,84.71 49.62,85.02C48.95,85.17 48.28,85.32 47.62,85.49L46.62,85.73L45.62,86C43.51,86.56 41.41,87.22 39.34,88C57.042,92.895 75.951,85.016 84.94,69C82.98,71.153 81.027,73.13 79.08,74.93Z" style="fill:#5D5DFF;"/>
            <path d="M80.29,26.58L81.06,27.24L81.84,27.85L83.4,29.09C84.03,29.59 84.65,30.09 85.27,30.64C79.785,20.405 70.115,13.043 58.79,10.48C65.148,14.663 71.283,19.176 77.17,24L80.29,26.58Z" style="fill:#5D5DFF;"/>
            <path d="M82.65,33.53L81.08,32.39C80.82,32.21 80.56,32.01 80.29,31.83L79.49,31.32C78.42,30.64 77.34,29.96 76.25,29.32C67.308,23.818 58.048,18.849 48.52,14.44C45.747,13.16 42.943,11.93 40.11,10.75C35.407,11.957 30.963,14.015 27,16.82C33.707,18.54 40.207,20.423 46.5,22.47C56.351,25.662 66.03,29.36 75.5,33.55C76.62,34.05 77.73,34.55 78.83,35.06L79.66,35.44L80.48,35.76C81.04,35.97 81.58,36.19 82.13,36.42C84.31,37.3 86.44,38.247 88.52,39.26L88.71,39.36C88.55,38.73 88.37,38.12 88.18,37.51C86.353,36.21 84.51,34.883 82.65,33.53Z" style="fill:#5D5DFF;"/>
            <path d="M87.76,43.12C85.68,42.46 83.55,41.73 81.38,40.95L79.74,40.36L78.92,40.06L78.11,39.82L74.74,38.82C70.18,37.45 65.41,36.01 60.46,34.55C57.98,33.83 55.46,33.09 52.88,32.36L49,31.26L46,30.45L45,30.19C43.63,29.87 42.28,29.56 40.91,29.26L36.78,28.37C34.013,27.79 31.197,27.227 28.33,26.68C25.12,26.07 21.86,25.47 18.55,24.91C16.125,28.011 14.173,31.455 12.76,35.13C17.54,35.57 22.207,36.03 26.76,36.51C29.76,36.82 32.62,37.14 35.48,37.51L39.72,38.01C41.11,38.17 42.5,38.34 43.84,38.52L44.84,38.65L45.84,38.8L47.84,39.12L51.84,39.77L59.44,41C64.51,41.83 69.37,42.62 74.04,43.32L77.52,43.82L78.4,43.94C78.68,43.94 78.97,43.94 79.25,43.99L80.94,44.09C83.18,44.23 85.367,44.403 87.5,44.61L89.73,44.84L89.58,43.69C89,43.51 88.37,43.32 87.76,43.12Z" style="fill:#5D5DFF;"/>
            <path d="M85.94,55.23C83.816,56.052 81.65,56.759 79.45,57.35L77.77,57.78L77.35,57.88L77.12,57.88L76.54,58.03C76.1,58.12 75.62,58.2 75.11,58.27C74.6,58.34 74.11,58.39 73.55,58.43C72.47,58.52 71.36,58.55 70.23,58.56C69.1,58.57 67.92,58.56 66.75,58.48C64.37,58.37 61.9,58.17 59.34,57.94C56.78,57.71 54.11,57.44 51.34,57.22C49.95,57.1 48.55,57 47.12,56.91C46.41,56.91 45.69,56.82 44.96,56.79L42.74,56.79C39.665,56.735 36.589,56.868 33.53,57.19C30.44,57.51 27.35,58.01 24.25,58.63C21.15,59.25 18,60 15,60.82L11.92,61.67C13.066,65.252 14.709,68.655 16.8,71.78L18.56,71.13C21.31,70.13 24.04,69.23 26.75,68.43C29.46,67.63 32.17,66.96 34.83,66.43C37.41,65.916 40.018,65.555 42.64,65.35L43.59,65.29L44.59,65.29C45.24,65.29 45.89,65.23 46.54,65.2C47.83,65.2 49.11,65.12 50.38,65.1C52.92,65.1 55.38,65.1 57.83,65.02C60.28,64.94 62.62,64.94 64.95,64.8C66.12,64.73 67.27,64.64 68.41,64.51C69.55,64.38 70.71,64.21 71.88,63.99C72.47,63.87 73.06,63.74 73.67,63.59C74.28,63.44 74.9,63.24 75.59,63C75.93,62.88 76.29,62.74 76.68,62.57L76.83,62.5L76.99,62.43L77.14,62.36L77.25,62.3L77.67,62.06L79.33,61.06C81.54,59.76 83.71,58.45 85.83,57.11C87.163,56.283 88.467,55.447 89.74,54.6L89.86,53.6C88.53,54.17 87.25,54.72 85.94,55.23Z" style="fill:#5D5DFF;"/>
        </g>
        <g id="SvgjsG2117">
        </g>
        <g id="SvgjsG2118">
        </g>
    </g>
</svg>
